/* XPM */
static char *result[] = {
/* columns rows colors chars-per-pixel */
"10 14 7 1 ",
"  c #222222",
". c #8F4029",
"X c #C56025",
"o c #55A894",
"O c #72D6CE",
"+ c #FDF7ED",
"@ c None",
/* pixels */
"@@    @ @@",
"@@ .X  + @",
"      O++ ",
" OOooOOO+ ",
" OOOOOOO+ ",
" Oo   OO+ ",
"   .X O++ ",
"@@ .X  + @",
"@@ .X @ @@",
"@@ .X @@@@",
"@@ .X @@@@",
"@@ .X @@@@",
"@@ .X @@@@",
"@@    @@@@"
};
