/* XPM */
static char *e557664027f1415db75b0c94fae5f5de3xHlxczMt2dHoSRs[] = {
/* columns rows colors chars-per-pixel */
"18 18 8 1 ",
"  c None",
". c #5F5226",
"X c #F1F0FD",
"o c #5F5226",
"O c #D7B84D",
"+ c #FDE07E",
"@ c #F1F0FD",
"# c white",
/* pixels */
"                  ",
"                  ",
"                  ",
"                  ",
"                  ",
"                  ",
"                  ",
"     ooo.         ",
"    oO++ooooo     ",
"    oOo+O++Oo     ",
"    @Oo+oooOo     ",
"    @@++o..oo     ",
"    X@oo.....     ",
"                  ",
"                  ",
"                  ",
"                  ",
"                  "
};
