/* XPM */
static char *a157b1bad9cf40ffcebb23002b0ad16f1jLlfk1m40xHw9Zy[] = {
/* columns rows colors chars-per-pixel */
"32 32 9 1 ",
"  c None",
". c #2F2F2E",
"X c #54443B",
"o c #2F2F2E",
"O c #B97F56",
"+ c #7C4E2E",
"@ c #99643E",
"# c #54443B",
"$ c white",
/* pixels */
"                                ",
"                                ",
"                                ",
"                                ",
"                                ",
"                                ",
"    ooo.        ooo.            ",
"   oOOOo.      oOOOo            ",
"   o+@@o.      o+@@o            ",
"   o+@@ooooooooo+@@o            ",
"   o+@@OOOOOOOOOO@@o            ",
"   o+@@@@@@@@@@@@@@o            ",
"   o+@@ooooooooo+@@o            ",
"   o+@@ooooooooo+@@o            ",
" ##o+@@OOOOOOOOOO@@o##X         ",
"###o+@@@@@@@@@@@@@@o###X        ",
"###o+@@ooooooooo+@@o####        ",
"#ooo+++ooooooooo+++ooo##        ",
"oooooooooooooooooooooooX        ",
"Xooooooooooooooooooooo.X        ",
"...ooooooooooooooooo....        ",
" .....ooooooooooo......         ",
"                                ",
"                                ",
"                                ",
"                                ",
"                                ",
"                                ",
"                                ",
"                                ",
"                                ",
"                                "
};
