/* XPM */
static char *result[] = {
/* columns rows colors chars-per-pixel */
"16 28 8 1 ",
"  c #222222",
". c #483B3A",
"X c #314152",
"o c #3D734F",
"O c #775C55",
"+ c #4BA747",
"@ c #D3BFA9",
"# c None",
/* pixels */
"################",
"################",
"################",
"################",
"################",
"################",
"################",
"################",
"################",
"################",
"################",
"################",
"# #### #########",
"#  ###  ########",
"# o  # o  ######",
"# ooo  XXX     #",
"## ++++++++++++ ",
"## ++++++++++++ ",
"## +++  ++ +++  ",
"## +++  ++o+++o ",
"## +++oo+++++++ ",
"### +++++++++++ ",
"### +++++oXXX   ",
"### ++++@@@@ ###",
"    ++++@@@@ ###",
" ++.......... ##",
"#  +++OOOO+++ ##",
"##            ##"
};
