/* XPM */
static char *e0f0483e658842afa28b8d2b3ac7a7ebhCViazEH0Mb7U9Da[] = {
/* columns rows colors chars-per-pixel */
"32 32 4 1 ",
"  c None",
". c #1E1E1E",
"X c #FFC7B0",
"o c #F4CFB9",
/* pixels */
"                                ",
"                                ",
"                                ",
"                                ",
"             .......            ",
"            .XXXXXXX.           ",
"           .XXXXXXXXX.          ",
"           .XX..XXX...          ",
"           .XXXXXXXXX.          ",
"           .XXX.XXX.X.          ",
"           .XXX.XXX.X.          ",
"           .XXXXXXXXX.          ",
"           .XXXXXXXXX.          ",
"            .XXXXXXX.           ",
"             ..XXX..            ",
"            ..XXXXX..           ",
"           .ooXXXXX.o.          ",
"           .ooXXXXX.o.          ",
"            ..XXXXX..           ",
"             .XXXXX.            ",
"             .X...X.            ",
"             .X. .X.            ",
"             .X. .X.            ",
"             ... ...            ",
"                                ",
"                                ",
"                                ",
"                                ",
"                                ",
"                                ",
"                                ",
"                                "
};
